<?xml version="1.0" encoding="UTF-8"?>
<svg version="1.1" xmlns="http://www.w3.org/2000/svg" width="896" height="191">
<path d="M0 0 C1.80386925 -0.01971359 1.80386925 -0.01971359 3.6441803 -0.03982544 C7.60236125 -0.07908002 11.56048894 -0.10257684 15.51879883 -0.12255859 C16.88694141 -0.13066319 18.25508323 -0.1388973 19.62322426 -0.14725876 C26.04483996 -0.18526135 32.46641076 -0.21375996 38.88811702 -0.2304827 C46.28765925 -0.25007581 53.68601264 -0.30287727 61.08513564 -0.38348448 C66.81782191 -0.44378779 72.55016655 -0.47341717 78.28316385 -0.48004472 C81.70261812 -0.48474275 85.12079476 -0.50261855 88.53990746 -0.55296707 C92.34919766 -0.60147674 96.1553417 -0.59987582 99.96484375 -0.5859375 C101.09379059 -0.61155762 102.22273743 -0.63717773 103.38589478 -0.66357422 C110.8531561 -0.56373223 110.8531561 -0.56373223 113.56805992 2.10054779 C114.86171638 4.14127432 115.8496466 6.13156119 116.78833008 8.35400391 C117.60672363 9.72637207 117.60672363 9.72637207 118.44165039 11.12646484 C119.97895131 13.78276068 121.51080794 16.44207194 123.03833008 19.10400391 C123.85043945 20.50199219 123.85043945 20.50199219 124.67895508 21.92822266 C125.45239258 23.2759375 125.45239258 23.2759375 126.24145508 24.65087891 C126.93996582 25.86275879 126.93996582 25.86275879 127.65258789 27.09912109 C129.60131661 30.96809325 129.60131661 30.96809325 129.78833008 33.35400391 C128.62471104 35.44550323 128.62471104 35.44550323 126.78833008 37.35400391 C124.41686153 37.85063934 124.41686153 37.85063934 121.55955505 37.84606934 C120.47604263 37.85420151 119.39253021 37.86233368 118.27618408 37.87071228 C117.08708435 37.85939774 115.89798462 37.84808319 114.67285156 37.83642578 C112.79434258 37.84229454 112.79434258 37.84229454 110.87788391 37.84828186 C108.15195438 37.85427079 105.42712174 37.85305509 102.70132256 37.83985901 C98.38417062 37.81951811 94.06741502 37.82950348 89.7502594 37.84411621 C79.79761933 37.87316373 69.84509501 37.86244919 59.89243317 37.85141754 C50.78870391 37.84172641 41.68518236 37.84057773 32.58148819 37.87129831 C28.29807538 37.88461295 24.01525952 37.87879478 19.73188293 37.85793304 C17.7017399 37.85107656 15.67185007 37.85340075 13.64170837 37.85972595 C11.17753137 37.86734976 8.71325057 37.8610245 6.24917603 37.83729553 C-2.21943966 37.89971852 -9.63596957 39.42568424 -16.52416992 44.60400391 C-25.47004285 53.75792039 -26.58508846 63.6257398 -26.58227539 76.00463867 C-26.58663882 78.15120428 -26.6229986 80.29569275 -26.66088867 82.44189453 C-26.73626288 91.47992359 -26.02804472 99.32815702 -20.38745117 106.75634766 C-19.77256836 107.26294922 -19.15768555 107.76955078 -18.52416992 108.29150391 C-17.92217773 108.81615234 -17.32018555 109.34080078 -16.69995117 109.88134766 C-8.2945095 114.85599681 0.27711337 114.79982215 9.82348633 114.75244141 C11.27119594 114.75446689 12.71890456 114.75738226 14.16661072 114.76113892 C17.18653164 114.76553859 20.20618467 114.75920706 23.22607422 114.74511719 C27.07813071 114.72801097 30.92956061 114.73789009 34.78159428 114.75583458 C37.76635887 114.7667235 40.75097716 114.76320309 43.73574638 114.7554512 C45.15538039 114.75346407 46.5750281 114.75585562 47.99464607 114.76288986 C55.60835446 114.79235186 61.86071673 114.64826096 68.78833008 111.35400391 C69.57208008 111.06525391 70.35583008 110.77650391 71.16333008 110.47900391 C73.50340859 108.85894955 73.79847652 107.01423533 74.78833008 104.35400391 C75.42641602 102.70464844 75.42641602 102.70464844 76.07739258 101.02197266 C76.51825195 99.87341797 76.95911133 98.72486328 77.41333008 97.54150391 C77.8593457 96.38005859 78.30536133 95.21861328 78.76489258 94.02197266 C79.10262695 93.14154297 79.44036133 92.26111328 79.78833008 91.35400391 C79.15024414 91.22123047 78.5121582 91.08845703 77.85473633 90.95166016 C77.02844727 90.77505859 76.2021582 90.59845703 75.35083008 90.41650391 C74.52711914 90.24248047 73.7034082 90.06845703 72.85473633 89.88916016 C70.78833008 89.35400391 70.78833008 89.35400391 69.78833008 88.35400391 C70.18324683 81.9778934 71.93423716 76.73039222 74.35083008 70.85400391 C74.68018555 70.03158203 75.00954102 69.20916016 75.34887695 68.36181641 C76.15361016 66.35581478 76.96978765 64.35441046 77.78833008 62.35400391 C84.46353348 62.32873446 91.13872464 62.31117123 97.81396484 62.29907227 C100.08675599 62.29403065 102.35954388 62.28719753 104.63232422 62.27856445 C107.89136559 62.2664913 111.15036425 62.26077404 114.40942383 62.25634766 C115.43233017 62.25118637 116.45523651 62.24602509 117.50914001 62.2407074 C118.45003983 62.24063187 119.39093964 62.24055634 120.36035156 62.24047852 C121.1930809 62.2382579 122.02581024 62.23603729 122.8837738 62.23374939 C124.78833008 62.35400391 124.78833008 62.35400391 125.78833008 63.35400391 C125.39714776 70.97197192 123.30673984 77.67684413 120.89379883 84.87744141 C120.31085808 86.65038071 120.31085808 86.65038071 119.71614075 88.45913696 C118.68670406 91.58382921 117.64954124 94.70581283 116.60870361 97.82672119 C115.56162411 100.9740186 114.52640998 104.12521862 113.48950195 107.27587891 C101.28066002 144.26238067 101.28066002 144.26238067 90.53833008 149.85400391 C85.19479102 152.23872381 80.43123772 152.45129049 74.61767578 152.30541992 C72.91402057 152.27266455 71.21035035 152.24068313 69.50666809 152.20936584 C68.60454905 152.1917174 67.70243 152.17406895 66.77297401 152.1558857 C60.9526523 152.05647426 55.1314445 152.03252184 49.3104372 151.99829197 C44.21245774 151.96412912 39.1180622 151.9015133 34.02148438 151.7746582 C9.13817569 149.91329813 9.13817569 149.91329813 -12.92329407 158.8368988 C-15.45358849 161.5043391 -17.62499797 164.27074588 -19.68740845 167.31124878 C-22.34610818 170.87433333 -25.75015986 173.59654377 -29.21166992 176.35400391 C-29.89457596 176.92074326 -30.57748199 177.4874826 -31.28108215 178.07139587 C-33.21166992 179.35400391 -33.21166992 179.35400391 -35.96166992 179.04150391 C-37.07541992 178.70119141 -37.07541992 178.70119141 -38.21166992 178.35400391 C-38.19483154 177.36070068 -38.17799316 176.36739746 -38.16064453 175.34399414 C-38.10973104 171.6327616 -38.11845567 167.9235822 -38.14453125 164.2121582 C-38.14759978 162.61087122 -38.13482872 161.009468 -38.10546875 159.40844727 C-37.66117825 150.09902736 -37.66117825 150.09902736 -41.14135742 141.8449707 C-43.41853565 140.09618944 -45.686471 138.71121175 -48.21166992 137.35400391 C-57.49337828 128.93960273 -64.44572092 116.34635808 -65.41226196 103.73713684 C-65.5078871 100.73156459 -65.54122787 97.73219059 -65.54760742 94.72509766 C-65.55759262 93.06414818 -65.55759262 93.06414818 -65.56777954 91.36964417 C-65.57787041 89.0323349 -65.58259767 86.69499704 -65.58227539 84.35766602 C-65.58662661 80.82664975 -65.6229258 77.29690708 -65.66088867 73.76611328 C-65.76829803 52.46168865 -62.69423722 34.58370472 -47.53930664 18.46630859 C-34.68298457 5.50978476 -17.84241949 0.08545312 0 0 Z " fill="#FFFFFF" transform="translate(65.211669921875,5.64599609375)"/>
<path d="M0 0 C4.18810858 3.65117158 8.22492466 7.55766539 10.875 12.5 C10.875 13.49 10.875 14.48 10.875 15.5 C8.05151607 17.79520861 4.7851101 19.45667192 1.625 21.25 C0.75230469 21.76949219 -0.12039063 22.28898437 -1.01953125 22.82421875 C-1.86386719 23.31019531 -2.70820313 23.79617187 -3.578125 24.296875 C-4.35317383 24.74385742 -5.12822266 25.19083984 -5.92675781 25.65136719 C-8.52700937 26.65519598 -9.58848393 26.60545471 -12.125 25.5 C-13.26116211 24.0630891 -14.39706819 22.62597449 -15.53125 21.1875 C-22.97324337 13.30774231 -34.02555054 10.4532436 -44.5 10.0625 C-57.04747985 10.42014788 -66.38327082 14.6510465 -75.08984375 23.49609375 C-82.61274039 32.16412476 -84.89282416 42.73309942 -84.50390625 54.01171875 C-83.20089017 66.00752661 -78.69336163 75.13630866 -69.375 82.8125 C-59.14950789 89.97432327 -46.21958327 91.97322969 -34.0625 90.00390625 C-24.32518801 87.80555903 -15.63592158 84.21727596 -10.125 75.5 C-9.135 73.19 -8.145 70.88 -7.125 68.5 C-19.335 68.5 -31.545 68.5 -44.125 68.5 C-44.125 60.91 -44.125 53.32 -44.125 45.5 C-23.005 45.5 -1.885 45.5 19.875 45.5 C19.875 66.42255862 18.31766163 83.81785315 3.3125 99.25390625 C-4.68203058 106.62066119 -12.73881206 111.26495785 -23.125 114.5 C-23.91003906 114.74621094 -24.69507813 114.99242187 -25.50390625 115.24609375 C-43.85721823 119.87432025 -64.55408112 116.330706 -80.6796875 106.765625 C-95.28798312 97.49232117 -105.13113881 83.16431598 -109.50976562 66.5480957 C-110.55195227 61.38472259 -110.5582305 56.31295015 -110.5 51.0625 C-110.51160156 50.02029297 -110.52320313 48.97808594 -110.53515625 47.90429688 C-110.46973564 30.3170563 -103.61782087 14.59700535 -91.1796875 2.2265625 C-83.19150837 -5.18542011 -73.62527711 -10.59396001 -63.125 -13.5 C-62.36445313 -13.72300781 -61.60390625 -13.94601562 -60.8203125 -14.17578125 C-39.36825859 -19.48462287 -17.12133004 -13.42758313 0 0 Z " fill="#FFFFFF" transform="translate(338.125,24.5)"/>
<path d="M0 0 C1.91642586 1.65754026 3.72731404 3.34421521 5.4765625 5.17578125 C5.8065625 2.53578125 6.1365625 -0.10421875 6.4765625 -2.82421875 C14.3965625 -2.82421875 22.3165625 -2.82421875 30.4765625 -2.82421875 C30.52184606 8.86799758 30.55849753 20.56015513 30.58018684 32.2524395 C30.59059949 37.68232369 30.60471253 43.11214448 30.62744141 48.54199219 C30.6492598 53.78748315 30.66115005 59.03291334 30.66631699 64.2784462 C30.66999663 66.27419109 30.67718187 68.26993286 30.68802261 70.2656517 C30.70265722 73.07284339 30.70453547 75.87978769 30.70361328 78.68701172 C30.71080383 79.50197617 30.71799438 80.31694061 30.72540283 81.15660095 C30.6851326 92.57321247 27.97626881 104.05540211 20.1015625 112.7421875 C7.53172534 123.83144288 -7.17758196 126.91288393 -23.48242188 126.30761719 C-36.89971539 125.4409499 -47.43076161 119.87196782 -56.74609375 110.421875 C-58.60146052 108.07718073 -59.47626606 105.95548791 -60.5234375 103.17578125 C-57.45552949 101.27460525 -54.36711329 99.40968078 -51.2734375 97.55078125 C-50.40074219 97.009375 -49.52804687 96.46796875 -48.62890625 95.91015625 C-47.78457031 95.40742188 -46.94023438 94.9046875 -46.0703125 94.38671875 C-44.90773926 93.67974854 -44.90773926 93.67974854 -43.72167969 92.95849609 C-41.5234375 92.17578125 -41.5234375 92.17578125 -39.34472656 92.88916016 C-37.5234375 94.17578125 -37.5234375 94.17578125 -35.8359375 96.55078125 C-31.5563669 101.4086722 -27.05600616 102.92226831 -20.66015625 103.5625 C-13.14454172 103.88006118 -6.82659509 103.6607203 -0.5234375 99.17578125 C3.35363141 95.19668421 5.34513812 91.4178811 5.671875 85.84375 C5.64867187 84.69519531 5.62546875 83.54664063 5.6015625 82.36328125 C5.58351563 81.20183594 5.56546875 80.04039062 5.546875 78.84375 C5.52367187 77.96332031 5.50046875 77.08289063 5.4765625 76.17578125 C4.98027344 76.64628906 4.48398437 77.11679688 3.97265625 77.6015625 C-5.03300419 85.85532719 -13.4082583 87.70254401 -25.5390625 87.4453125 C-37.56021493 86.63211689 -47.39363707 81.71651803 -55.62109375 72.9375 C-65.8975918 60.3046075 -67.82761577 47.06067261 -66.5234375 31.17578125 C-64.33072367 19.51453045 -57.64236798 9.64387087 -48.5234375 2.17578125 C-34.52847357 -7.16109557 -14.47299028 -10.46267254 0 0 Z M-39.078125 27.078125 C-43.37208041 33.31016299 -43.3330343 39.84679972 -42.5234375 47.17578125 C-40.34876915 54.57976839 -36.26214311 59.4836935 -29.5234375 63.17578125 C-21.9864291 66.13674883 -15.15692185 65.93789328 -7.69140625 63.13671875 C-1.07181034 60.20262759 2.58044412 56.66781695 5.59765625 49.99609375 C7.56537447 43.68190463 7.20625479 37.64862733 5.3515625 31.36328125 C1.48456885 24.78939204 -2.86513895 19.17000691 -10.5234375 17.17578125 C-23.25005618 15.82366514 -30.80054728 17.39528408 -39.078125 27.078125 Z " fill="#FFFFFF" transform="translate(646.5234375,50.82421875)"/>
<path d="M0 0 C10.17975112 8.10411971 16.33596361 18.22373801 18.60546875 31.07421875 C18.84166616 34.22707108 18.84214076 37.35176983 18.79296875 40.51171875 C18.79200195 41.7327832 18.79200195 41.7327832 18.79101562 42.97851562 C18.74631696 48.93337054 18.74631696 48.93337054 17.60546875 50.07421875 C15.51927853 50.16839648 13.42986398 50.19164753 11.34155273 50.18774414 C10.36109985 50.18796318 10.36109985 50.18796318 9.36083984 50.18818665 C7.19104747 50.18748758 5.02133996 50.17969553 2.8515625 50.171875 C1.35083564 50.1700108 -0.14989182 50.16858691 -1.65061951 50.16758728 C-5.60771351 50.16376227 -9.56477103 50.15393215 -13.52185059 50.1428833 C-17.55687974 50.13266881 -21.59191478 50.12808958 -25.62695312 50.12304688 C-33.54949594 50.11230986 -41.47200906 50.09523365 -49.39453125 50.07421875 C-48.62849013 51.52736071 -47.85326698 52.97566464 -47.07421875 54.421875 C-46.64351074 55.22890869 -46.21280273 56.03594238 -45.76904297 56.86743164 C-43.17705969 61.02887692 -39.68832045 62.55670307 -35.26953125 64.32421875 C-25.98836836 66.12057286 -17.75856343 65.74545182 -9.39453125 61.07421875 C-6.84390459 59.03591624 -6.84390459 59.03591624 -5.39453125 57.07421875 C-0.75521365 58.71374458 3.24402733 61.14292927 7.41796875 63.69921875 C8.11083984 64.11945313 8.80371094 64.5396875 9.51757812 64.97265625 C11.21557623 66.00316545 12.91080489 67.03823556 14.60546875 68.07421875 C7.54570525 78.61038095 -1.72805429 84.99723249 -14.28515625 87.6953125 C-29.87069409 89.59455518 -45.18834419 87.72128769 -58.02734375 78.1015625 C-67.85412949 69.78546173 -74.10240878 58.99544345 -75.39453125 46.07421875 C-76.4309021 31.05948008 -72.86656609 18.35209256 -63.20703125 6.88671875 C-47.07465407 -10.37117312 -19.49220465 -13.41671229 0 0 Z M-45.83203125 21.44921875 C-48.50620559 24.66432294 -48.93937354 26.70874561 -50.39453125 31.07421875 C-35.54453125 31.07421875 -20.69453125 31.07421875 -5.39453125 31.07421875 C-8.21968212 22.59876614 -10.60146454 19.15929404 -18.39453125 15.07421875 C-28.19746655 11.80657365 -38.79451017 13.80121391 -45.83203125 21.44921875 Z " fill="#FFFFFF" transform="translate(767.39453125,52.92578125)"/>
<path d="M0 0 C0.67675781 0.55171875 1.35351562 1.1034375 2.05078125 1.671875 C3.08138672 2.49945313 3.08138672 2.49945313 4.1328125 3.34375 C12.54715462 10.87321867 18.11644922 22.42395478 19.05078125 33.671875 C19.32323271 39.25712993 19.1516678 44.16744223 18.05078125 49.671875 C-4.05921875 50.001875 -26.16921875 50.331875 -48.94921875 50.671875 C-45.16561946 57.53257573 -45.16561946 57.53257573 -39.88671875 61.609375 C-39.23574219 61.98964844 -38.58476562 62.36992188 -37.9140625 62.76171875 C-31.41002723 65.77452236 -23.06043729 65.81519658 -16.23828125 63.91796875 C-12.08638305 62.15927433 -8.85484614 60.20916051 -5.94921875 56.671875 C-1.27004794 58.05144816 2.77701727 60.02194851 6.92578125 62.546875 C7.81523437 63.05541016 7.81523437 63.05541016 8.72265625 63.57421875 C10.41796875 64.6015625 10.41796875 64.6015625 13.05078125 66.671875 C13.05078125 71.37652047 12.48354831 71.83024871 9.30078125 75.046875 C-1.29615888 85.16062132 -13.30543328 88.04683029 -27.50512695 87.97265625 C-40.57860542 87.65081218 -52.04199994 83.3248145 -61.94921875 74.671875 C-72.89960948 61.90661504 -75.80140792 49.37713493 -75.12841797 32.93408203 C-74.20695651 21.30157271 -68.4954156 11.38429655 -59.94921875 3.671875 C-59.18158203 2.93324219 -59.18158203 2.93324219 -58.3984375 2.1796875 C-42.90332368 -12.13993493 -16.71432264 -12.3447648 0 0 Z M-47.6015625 23.57421875 C-49.32707772 25.97939544 -49.32707772 25.97939544 -49.94921875 30.671875 C-35.42921875 30.671875 -20.90921875 30.671875 -5.94921875 30.671875 C-7.1310025 23.5811725 -9.1040211 20.65190318 -14.66796875 16.33984375 C-26.73419976 9.10521795 -39.15730563 13.89890848 -47.6015625 23.57421875 Z " fill="#FFFFFF" transform="translate(443.94921875,53.328125)"/>
<path d="M0 0 C0.69351563 0.25523438 1.38703125 0.51046875 2.1015625 0.7734375 C12.14334317 5.13421078 21.74341009 14.88117388 26.28125 24.80078125 C31.47805811 38.51664266 31.34358213 52.02171551 25.93359375 65.6953125 C20.47571261 77.47568962 11.36322784 85.81934409 -0.8125 90.375 C-14.67512269 95.08460594 -28.58410928 94.00081117 -41.75 87.6796875 C-52.72368695 81.55717314 -60.47278757 72.33585884 -64.875 60.5625 C-68.33264248 47.43588123 -67.00945818 32.18179206 -60.52734375 20.30078125 C-52.94893256 8.60172094 -43.17074674 2.20976136 -30.25 -2.3125 C-20.18619317 -4.46164971 -9.58864581 -3.56858986 0 0 Z M-38.58984375 31.0078125 C-42.84033276 37.01265846 -42.71477332 43.88892181 -42 51 C-40.25274642 58.1659514 -36.05581873 62.92895612 -30 67 C-23.53532132 70.17900041 -15.99363966 70.17299525 -9.140625 68.16015625 C-2.42069689 65.1361886 1.86918041 60.83646492 4.83984375 54.09375 C6.93486056 47.41160489 6.19541587 40.07392651 3.6875 33.625 C3.130625 32.75875 2.57375 31.8925 2 31 C1.46375 30.154375 0.9275 29.30875 0.375 28.4375 C-5.08629999 22.83248159 -10.20332057 20.67335962 -18.0625 20.4375 C-27.51905266 20.83406511 -32.68376844 23.66221541 -38.58984375 31.0078125 Z " fill="#FFFFFF" transform="translate(539,48)"/>
<path d="M0 0 C8.15136949 6.72159298 13.03731516 13.99502635 14.09680176 24.78036499 C14.21044952 28.78082443 14.20140425 32.76106808 14.140625 36.76171875 C14.13314597 38.2257255 14.12746092 39.68974239 14.12347412 41.15376282 C14.10834807 44.96960068 14.06918298 48.78480992 14.0246582 52.60040283 C13.98342044 56.50890606 13.96540286 60.41751287 13.9453125 64.32617188 C13.90267229 71.96776495 13.83243369 79.6087136 13.75 87.25 C5.83 87.25 -2.09 87.25 -10.25 87.25 C-10.2593457 85.49937256 -10.26869141 83.74874512 -10.27832031 81.94506836 C-10.31393459 76.14142917 -10.36778774 70.3381108 -10.43390274 64.53475094 C-10.47330314 61.01834771 -10.5055275 57.50219209 -10.52099609 53.9855957 C-10.53912827 49.93660845 -10.58911133 45.88854494 -10.640625 41.83984375 C-10.64185364 40.58541977 -10.64308228 39.33099579 -10.64434814 38.03855896 C-10.75758072 31.25851291 -11.08356411 26.71207236 -15.25 21.25 C-19.98528878 17.48605251 -25.36628596 17.75283935 -31.18359375 17.8984375 C-36.53420785 18.5118837 -39.03283776 20.93414893 -42.5625 24.75 C-45.23693581 28.71212713 -45.38094281 32.12694391 -45.45532227 36.84472656 C-45.47526749 37.96558655 -45.49521271 39.08644653 -45.51576233 40.24127197 C-45.53247482 41.44555847 -45.54918732 42.64984497 -45.56640625 43.890625 C-45.58718735 45.12794373 -45.60796844 46.36526245 -45.62937927 47.64007568 C-45.68365872 50.92138691 -45.73391779 54.20272733 -45.78222656 57.48413086 C-45.83256092 60.83583104 -45.8882636 64.1874372 -45.94335938 67.5390625 C-46.05044513 74.10930679 -46.15174126 80.67961801 -46.25 87.25 C-54.17 87.25 -62.09 87.25 -70.25 87.25 C-70.25 57.55 -70.25 27.85 -70.25 -2.75 C-62.33 -2.75 -54.41 -2.75 -46.25 -2.75 C-45.92 -0.77 -45.59 1.21 -45.25 3.25 C-44.78851562 2.85167969 -44.32703125 2.45335937 -43.8515625 2.04296875 C-31.52589004 -7.96859525 -13.23807394 -9.3592432 0 0 Z " fill="#FFFFFF" transform="translate(872.25,50.75)"/>
<path d="M0 0 C2.8100346 1.79363911 4.50940468 3.01880935 6 6 C6.3751455 10.97067782 6.15878799 14.05151502 3 18 C-0.21553446 20.32849047 -3.11021377 20.54457007 -7 20 C-9.92483867 18.17452064 -12.43429205 16.13141589 -14 13 C-14.59873168 7.73116124 -13.25400021 5.1153532 -10 1 C-6.79826746 -0.60086627 -3.47422941 -0.49917089 0 0 Z " fill="#FFFFFF" transform="translate(78,70)"/>
<path d="M0 0 C2.8100346 1.79363911 4.50940468 3.01880935 6 6 C6.3751455 10.97067782 6.15878799 14.05151502 3 18 C-0.21553446 20.32849047 -3.11021377 20.54457007 -7 20 C-9.92483867 18.17452064 -12.43429205 16.13141589 -14 13 C-14.4136968 8.34591099 -13.81070393 5.74760524 -11 2 C-7.31502204 -0.45665197 -4.28028214 -0.70086491 0 0 Z " fill="#FFFFFF" transform="translate(114,70)"/>
</svg>
